<svg xmlns="http://www.w3.org/2000/svg" width="158" height="33" fill="none"><g clip-path="url(#a)"><path fill="url(#b)" d="M16.2458 7.1218 12.4169.4878c-.2693-.4665-.8659-.6263-1.3324-.3569l-4.888 2.8238c-.4663.2694-.626.8658-.3566 1.3321l4.8389 8.3779h4.3766l1.1904-2.056c.6252-1.0822.6252-2.4168 0-3.487Z"/><path fill="url(#c)" d="M10.6411 12.6648H.9751c-.5385 0-.9751.4366-.9751.9752v5.6487c0 .5386.4366.9752.9751.9752h7.7662c1.1783 0 2.2725-.6253 2.8617-1.6473l1.2384-2.1523 2.1884-3.7995h-4.3887Z"/><path fill="url(#d)" d="M17.1841 7.1218 21.013.4878A.975.975 0 0 1 22.3453.131l4.8881 2.8238c.4662.2694.6259.8658.3566 1.3321l-4.8389 8.3779h-4.3887l-1.1904-2.056c-.6132-1.0822-.6132-2.4168.0121-3.487Z"/><path fill="url(#e)" d="M22.7229 12.5991h9.666c.5385 0 .9751.4366.9751.9752v5.6488c0 .5385-.4366.9751-.9751.9751h-7.9586c-1.0581 0-2.032-.5651-2.5611-1.4789l-1.3466-2.3206-2.1884-3.7996h4.3887Z"/><path fill="url(#f)" d="M9.0233 21.1501 5.194 27.7847c-.2692.4663-.1095 1.0625.3567 1.3318l4.8886 2.8241c.4664.2694 1.0628.1097 1.3322-.3567l4.6757-8.0954a.5652.5652 0 0 0 .0003-.5649l-2.0256-3.517h-2.3807c-1.2384 0-2.3927.6613-3.018 1.7435Z"/><path fill="url(#g)" d="m16.6103 23.2062 4.8388 8.3777c.2693.4664.8658.6261 1.3321.3567l4.8883-2.8239c.4663-.2694.626-.8658.3566-1.3321l-3.9851-6.899c-.5291-.9138-1.503-1.479-2.5611-1.479h-7.07l2.2004 3.7996Z"/><path fill="#000" fill-rule="evenodd" d="M103.885 14.5852c.589-.7335 1.311-1.2505 2.188-1.5751.878-.3247 1.756-.481 2.658-.481.985 0 1.863.1563 2.633.4689.769.3127 1.431.7455 1.984 1.3106.541.5651.962 1.2385 1.262 2.0321.289.7935.433 1.6833.433 2.6692 0 1.0581-.156 2.0321-.481 2.9218-.325.8898-.781 1.6593-1.395 2.2845-.613.6253-1.346 1.1183-2.212 1.4669-.866.3487-1.84.5171-2.934.5171-1.443-.0241-2.621-.3126-3.535-.8778-.926-.5651-1.647-1.2985-2.176-2.1883-.529-.8898-.89-1.8998-1.094-3.018-.205-1.1182-.301-2.2604-.301-3.4027 0-1.1423.084-2.3206.265-3.523.168-1.2024.529-2.2725 1.058-3.1983.433-.7335.938-1.3106 1.515-1.7314.577-.4329 1.202-.7575 1.899-.986.698-.2285 1.431-.3968 2.213-.505.781-.1082 1.599-.2164 2.429-.3246a319.892 319.892 0 0 1 1.96-.2165c.661-.0721 1.31-.2164 1.959-.4328v2.9699c-.324.1442-.781.2645-1.37.3366-.589.0842-1.203.1563-1.864.2165-.362.0328-.716.0693-1.067.1054-.291.03-.58.0597-.869.087-.637.06-1.202.1322-1.695.2043-.589.0962-1.094.2886-1.539.5892-.445.3006-.806.6613-1.082 1.0942-.277.4328-.469.9258-.602 1.4789-.144.5531-.216 1.1182-.24 1.7074Zm4.22 8.9096c.626 0 1.167-.1202 1.66-.3607.481-.2405.889-.5411 1.214-.9138.325-.3727.577-.8056.733-1.3106.169-.505.241-1.022.241-1.5751 0-.5651-.084-1.0942-.265-1.5992a3.736 3.736 0 0 0-.733-1.2865c-.325-.3607-.709-.6373-1.166-.8297-.457-.2044-.974-.3006-1.563-.3006-.602 0-1.143.0962-1.624.2886-.481.1924-.889.4689-1.226.8176-.337.3607-.601.7816-.806 1.2745-.204.493-.312 1.0221-.324 1.5872 0 .5411.072 1.0701.216 1.5751.144.505.373.9379.697 1.3226.325.3848.722.6974 1.203.9379.481.2525 1.07.3727 1.743.3727ZM49.1645 6.7485a.0976.0976 0 0 0-.0913-.0632h-3.821a.0976.0976 0 0 0-.0912.063l-7.2486 19.1272a.0975.0975 0 0 0 .0912.1321h3.2296a.0974.0974 0 0 0 .0915-.0637l1.4193-3.844h8.7774l1.3955 3.8435a.0975.0975 0 0 0 .0917.0642h3.2656a.0976.0976 0 0 0 .0913-.1319l-7.201-19.1272Zm1.3666 12.5017-3.295-9.1722c-.0308-.086-.1523-.0861-.1834-.0003L43.73 19.2502h6.8011Zm7.7789-7.6469a.0975.0975 0 0 0-.0975.0976v14.1974c0 .0539.0436.0975.0975.0975h6.732c.7455 0 1.4549-.0721 2.1282-.2284.6733-.1443 1.2745-.3968 1.7795-.7335.505-.3366.9138-.7815 1.2265-1.3346.3126-.5531.4689-1.2144.4689-1.9839 0-.8177-.2044-1.5271-.6132-2.1162-.4088-.5892-1.0461-.998-1.9238-1.2385.6372-.3366 1.1062-.7815 1.3947-1.3346.2886-.5531.4329-1.1423.4329-1.7795-.012-.8297-.1924-1.479-.5291-1.9599-.3366-.481-.7695-.8537-1.3106-1.1062-.541-.2525-1.1302-.4208-1.7915-.481-.6493-.0601-1.2986-.0962-1.9358-.0962H58.31Zm3.0527 5.9037v-3.3065h2.9458c.2476 0 .5049.0096.789.0203l.1008.0037c.3246.0241.6132.0842.8657.1924.2525.1082.4689.2766.6373.481.1803.2044.2645.505.2645.8897 0 .4329-.1082.7696-.3367 1.01-.2284.2405-.517.4088-.8777.5171-.3487.1082-.7575.1683-1.2024.1803-.4448.012-.8776.012-1.2984.012h-1.8879Zm4.2444 5.8196c-.3607.048-.7214.0601-1.0821.0601v-.0121h-3.1623v-3.5229h3.9679c.6252 0 1.1422.1202 1.5751.3607.4208.2405.6372.6974.6372 1.3947 0 .3848-.0961.6854-.2765.9139-.1804.2284-.4208.4088-.6974.541-.2886.1443-.6012.2285-.9619.2646Zm18.6565-11.7233a.0975.0975 0 0 1 .0975.0976v2.5103a.0975.0975 0 0 1-.0975.0975H79.589a.0976.0976 0 0 0-.0975.0975v11.5041a.0976.0976 0 0 1-.0975.0976h-2.8951a.0975.0975 0 0 1-.0975-.0976V14.4062a.0976.0976 0 0 0-.0975-.0975h-4.6747a.0976.0976 0 0 1-.0975-.0975v-2.5103a.0976.0976 0 0 1 .0975-.0976h12.6344Zm10.7433.2885c-.8657-.3608-1.8877-.5411-3.03-.5411-1.1302 0-2.1282.1924-2.9939.5531-.8777.3607-1.6112.8657-2.2124 1.515-.6012.6372-1.0581 1.4188-1.3587 2.3326-.2885.9018-.4449 1.9238-.4449 3.03 0 1.1062.1443 2.1162.4449 3.03.3006.9018.7455 1.6833 1.3347 2.3326.5891.6493 1.3226 1.1423 2.2003 1.503.8657.3487 1.8878.529 3.03.529 1.1663 0 2.2004-.1683 3.0781-.517.8778-.3487 1.6232-.8417 2.2244-1.503.6012-.6493 1.0581-1.4308 1.3587-2.3326.2886-.9138.4449-1.9238.4449-3.054 0-1.1062-.1563-2.1162-.4689-3.03-.3127-.9018-.7696-1.6834-1.3828-2.3326-.6012-.6493-1.3466-1.1543-2.2244-1.515ZM93.7925 23.122c-.505.2525-1.1062.3727-1.8156.3727-.6853 0-1.2865-.1202-1.8035-.3727-.493-.2405-.9138-.5772-1.2265-.998-.3126-.4208-.5531-.9138-.7094-1.4789-.1563-.5651-.2284-1.1784-.2284-1.8276 0-.6493.0721-1.2625.2284-1.8397.1563-.5771.3848-1.0701.7094-1.4909.3247-.4209.7455-.7455 1.2625-.986.5291-.2405 1.1062-.3607 1.7675-.3607.7094 0 1.3106.1202 1.8156.3607.493.2405.9018.5651 1.2265.986.3126.4208.553.9138.7093 1.4909.1564.5651.2285 1.1904.2285 1.8397 0 .6492-.0721 1.2625-.2285 1.8276-.1563.5651-.3967 1.0581-.7093 1.4789-.3127.4208-.7215.7575-1.2265.998Zm30.8625 2.6609c.782-.3247 1.419-.8177 1.888-1.491l.137 1.7138a.098.098 0 0 0 .097.0898h2.53c.054 0 .098-.0437.098-.0975v-7.6699c0-1.0822-.108-2.0681-.325-2.9819-.216-.9138-.649-1.6954-1.286-2.3567-.566-.5651-1.227-.9619-1.996-1.2024-.77-.2404-1.6-.3607-2.489-.3607-.698 0-1.383.0722-2.068.2165-.686.1442-1.311.3847-1.864.7334-.553.3487-1.022.7816-1.419 1.3106-.377.5034-.624 1.1048-.741 1.8248a.0969.0969 0 0 0 .096.111h3.014a.1.1 0 0 0 .094-.0688c.174-.5164.492-.8791.976-1.1095.505-.2405 1.094-.3607 1.791-.3607 1.191.024 2.02.3126 2.489.9018.455.5709.695 1.3564.709 2.3673a.0964.0964 0 0 1-.097.0976h-3.594c-.805 0-1.563.0961-2.296.2645-.734.1803-1.359.4328-1.9.7815-.541.3487-.962.8056-1.274 1.3587-.313.5531-.469 1.2264-.469 2.008 0 .7094.132 1.3467.409 1.8998.276.553.649 1.022 1.118 1.3947.481.3728 1.034.6493 1.659.8297.625.1803 1.323.2765 2.092.2765.962 0 1.84-.1683 2.621-.4809Zm-1.274-6.1081h3.006c0 .7334-.096 1.3586-.301 1.8757-.192.517-.457.9499-.805 1.2865-.337.3367-.758.5772-1.239.7214-.481.1443-1.01.2165-1.575.2165-.721 0-1.335-.1684-1.84-.5291-.505-.3607-.757-.8777-.757-1.5751 0-.5651.192-.998.565-1.2986.385-.3006.83-.4929 1.359-.5771.529-.0842 1.058-.1202 1.587-.1202Zm18.211-1.4252c-.071.0462-.06.1586.019.1892.664.2573 1.159.6512 1.486 1.1639.361.5771.541 1.2144.541 1.9238v.1082c0 .9138-.18 1.6713-.541 2.2725-.36.6012-.853 1.0821-1.467 1.4308-.613.3607-1.262.6012-1.971.7215-.698.1322-1.419.1923-2.153.1923-.709 0-1.431-.0721-2.176-.2044-.734-.1322-1.407-.3727-2.02-.7214-.613-.3487-1.118-.8056-1.515-1.3707-.381-.5419-.606-1.2165-.677-2.0238a.0963.0963 0 0 1 .096-.1044h2.822c.046 0 .086.0329.097.0781.078.3262.229.6008.463.8237.241.2404.53.4328.866.5771.325.1443.674.2405 1.034.3006.361.0601.698.0842 1.01.0842.325 0 .686-.0241 1.07-.0722.385-.0481.722-.1322 1.022-.2765.301-.1323.553-.3247.746-.5772.204-.2404.3-.5651.3-.9739 0-.6974-.264-1.1543-.781-1.3948-.517-.2404-1.166-.3607-1.96-.3607h-2.307a.0978.0978 0 0 1-.098-.0975v-2.2698c0-.0539.044-.0975.098-.0975h2.067c.673 0 1.25-.1323 1.719-.4089.469-.2765.709-.7454.709-1.4188 0-.3487-.084-.6372-.264-.8657a1.695 1.695 0 0 0-.637-.529c-.253-.1323-.542-.2165-.842-.2645-.313-.0481-.589-.0722-.818-.0722-.312 0-.625.0241-.962.0722-.324.048-.637.1322-.925.2645-.289.1322-.542.3006-.734.517-.187.1981-.304.4566-.35.7664a.101.101 0 0 1-.099.0873h-2.787a.0968.0968 0 0 1-.097-.1057c.082-.8067.307-1.4804.676-2.0105.385-.5531.854-.998 1.419-1.3226.565-.3247 1.19-.5531 1.875-.6854a10.674 10.674 0 0 1 2.032-.1924c.674 0 1.335.0602 1.984.1924.65.1323 1.239.3607 1.792.7094.541.3487.974.7575 1.274 1.2385.301.4809.457 1.1062.457 1.8757 0 .6974-.156 1.2865-.481 1.7795-.261.4387-.604.7866-1.012 1.0517Zm11.659 7.5728c.781-.3246 1.419-.8176 1.887-1.4909l.149 1.7144a.0975.0975 0 0 0 .097.0891h2.519c.053 0 .097-.0436.097-.0975v-7.6699c0-1.0821-.108-2.068-.325-2.9819-.216-.9138-.649-1.6953-1.286-2.3566-.565-.5651-1.227-.9619-1.996-1.2024-.77-.2405-1.599-.3607-2.489-.3607-.697 0-1.383.0721-2.068.2164s-1.311.3848-1.864.7335c-.553.3487-1.022.7815-1.419 1.3106-.377.5034-.624 1.1047-.74 1.8248-.01.0585.036.111.095.111h3.014a.099.099 0 0 0 .094-.0689c.174-.5163.492-.8791.976-1.1094.505-.2405 1.094-.3608 1.792-.3608 1.19.0241 2.02.3127 2.489.9018.469.5892.709 1.4068.709 2.4649h-3.691c-.806 0-1.563.0962-2.297.2645-.733.1804-1.358.4329-1.899.7816-.542.3487-.962.8056-1.275 1.3587-.313.5531-.469 1.2264-.469 2.0079 0 .7094.132 1.3467.409 1.8998.276.5531.649 1.022 1.118 1.3948.481.3727 1.034.6493 1.659.8296.626.1804 1.323.2766 2.093.2766.961 0 1.839-.1684 2.621-.481Zm-1.275-6.1081h3.006c0 .7335-.096 1.3587-.3 1.8757-.193.517-.457.9499-.806 1.2866-.337.3366-.758.5771-1.238.7214-.481.1443-1.011.2164-1.576.2164-.721 0-1.334-.1683-1.839-.529-.505-.3607-.758-.8778-.758-1.5751 0-.5652.193-.998.565-1.2986.385-.3006.83-.493 1.359-.5772.529-.0841 1.058-.1202 1.587-.1202Z" clip-rule="evenodd"/></g><defs><linearGradient id="b" x1="13.9772" x2="10.8748" y1="13.1897" y2=".082" gradientUnits="userSpaceOnUse"><stop stop-color="#2525D7"/><stop offset=".9997" stop-color="#2081FF"/></linearGradient><linearGradient id="c" x1="-1.7718" x2="13.8788" y1="20.2768" y2="13.2882" gradientUnits="userSpaceOnUse"><stop stop-color="#2525D7"/><stop offset=".9997" stop-color="#2081FF"/></linearGradient><linearGradient id="d" x1="18.6085" x2="21.6549" y1="12.2752" y2=".4922" gradientUnits="userSpaceOnUse"><stop stop-color="#4623D5"/><stop offset=".9997" stop-color="#6F7BF2"/></linearGradient><linearGradient id="e" x1="35.1399" x2="18.3082" y1="20.2767" y2="13.8787" gradientUnits="userSpaceOnUse"><stop stop-color="#4623D5"/><stop offset=".9997" stop-color="#6F7BF2"/></linearGradient><linearGradient id="f" x1="14.9614" x2="4.9882" y1="20.1783" y2="28.6877" gradientUnits="userSpaceOnUse"><stop stop-color="#FF5B51"/><stop offset="1" stop-color="#FF8946"/></linearGradient><linearGradient id="g" x1="28.1513" x2="15.4426" y1="29.1356" y2="21.0548" gradientUnits="userSpaceOnUse"><stop stop-color="#FF5B51"/><stop offset="1" stop-color="#FF8946"/></linearGradient><clipPath id="a"><path fill="#fff" d="M0 0h158v32.0992H0z"/></clipPath></defs></svg>
